<svg xmlns="http://www.w3.org/2000/svg" xmlns:xlink="http://www.w3.org/1999/xlink" width="500" zoomAndPan="magnify" viewBox="0 0 375 374.999991" height="500" preserveAspectRatio="xMidYMid meet" version="1.0"><defs><g/></defs><g fill="#e4e2dd" fill-opacity="1"><g transform="translate(32.169138, 206.703854)"><g><path d="M 49.671875 -37.96875 C 53.734375 -33.550781 55.765625 -28.128906 55.765625 -21.703125 C 55.765625 -15.285156 53.734375 -9.851562 49.671875 -5.40625 C 45.617188 -0.957031 40.46875 1.265625 34.21875 1.265625 C 28.46875 1.265625 23.734375 -0.535156 20.015625 -4.140625 L 20.015625 21.96875 L 5.0625 21.96875 L 5.0625 -43.34375 L 19.859375 -43.34375 L 19.859375 -38.4375 L 20.015625 -38.4375 C 23.734375 -42.550781 28.46875 -44.609375 34.21875 -44.609375 C 40.46875 -44.609375 45.617188 -42.394531 49.671875 -37.96875 Z M 36.953125 -14.359375 C 38.898438 -16.273438 39.875 -18.722656 39.875 -21.703125 C 39.875 -24.691406 38.941406 -27.128906 37.078125 -29.015625 C 35.222656 -30.898438 32.773438 -31.84375 29.734375 -31.84375 C 26.804688 -31.84375 24.398438 -30.882812 22.515625 -28.96875 C 20.628906 -27.0625 19.6875 -24.644531 19.6875 -21.71875 C 19.6875 -18.726562 20.65625 -16.273438 22.59375 -14.359375 C 24.539062 -12.441406 26.921875 -11.484375 29.734375 -11.484375 C 32.609375 -11.484375 35.015625 -12.441406 36.953125 -14.359375 Z M 36.953125 -14.359375 "/></g></g></g><g fill="#e4e2dd" fill-opacity="1"><g transform="translate(82.680447, 206.703854)"><g><path d="M 6.5 -67.5 C 8.25 -69.25 10.332031 -70.125 12.75 -70.125 C 15.175781 -70.125 17.257812 -69.25 19 -67.5 C 20.75 -65.757812 21.625 -63.675781 21.625 -61.25 C 21.625 -58.832031 20.75 -56.75 19 -55 C 17.257812 -53.25 15.175781 -52.375 12.75 -52.375 C 10.332031 -52.375 8.25 -53.25 6.5 -55 C 4.757812 -56.75 3.890625 -58.832031 3.890625 -61.25 C 3.890625 -63.675781 4.757812 -65.757812 6.5 -67.5 Z M 5.0625 -43.34375 L 5.0625 0 L 20.015625 0 L 20.015625 -43.34375 Z M 5.0625 -43.34375 "/></g></g></g><g fill="#e4e2dd" fill-opacity="1"><g transform="translate(101.008476, 206.703854)"><g><path d="M 28.140625 -32.359375 C 25.316406 -32.359375 22.890625 -31.316406 20.859375 -29.234375 C 18.835938 -27.148438 17.828125 -24.644531 17.828125 -21.71875 C 17.828125 -18.726562 18.835938 -16.191406 20.859375 -14.109375 C 22.890625 -12.023438 25.316406 -10.984375 28.140625 -10.984375 C 29.484375 -10.984375 30.757812 -11.148438 31.96875 -11.484375 C 33.1875 -11.828125 34.078125 -12.164062 34.640625 -12.5 L 35.40625 -13.015625 L 40.46875 -2.625 C 40.070312 -2.34375 39.519531 -1.988281 38.8125 -1.5625 C 38.113281 -1.132812 36.507812 -0.554688 34 0.171875 C 31.5 0.898438 28.8125 1.265625 25.9375 1.265625 C 19.570312 1.265625 13.976562 -0.972656 9.15625 -5.453125 C 4.34375 -9.929688 1.9375 -15.296875 1.9375 -21.546875 C 1.9375 -27.847656 4.34375 -33.265625 9.15625 -37.796875 C 13.976562 -42.335938 19.570312 -44.609375 25.9375 -44.609375 C 28.8125 -44.609375 31.457031 -44.269531 33.875 -43.59375 C 36.300781 -42.914062 38.019531 -42.238281 39.03125 -41.5625 L 40.46875 -40.546875 L 35.40625 -30.328125 C 33.539062 -31.679688 31.117188 -32.359375 28.140625 -32.359375 Z M 28.140625 -32.359375 "/></g></g></g><g fill="#e4e2dd" fill-opacity="1"><g transform="translate(135.301434, 206.703854)"><g><path d="M 54.578125 -43.34375 L 33.96875 -22.640625 L 56.609375 0 L 37.34375 0 L 20.015625 -17.3125 L 20.015625 0 L 5.0625 0 L 5.0625 -72.65625 L 20.015625 -72.65625 L 20.015625 -28.21875 L 35.140625 -43.34375 Z M 54.578125 -43.34375 "/></g></g></g><g fill="#e4e2dd" fill-opacity="1"><g transform="translate(182.687328, 206.703854)"><g><path d="M 48.921875 -19.59375 L 17.484375 -19.59375 C 17.484375 -16.550781 18.46875 -14.296875 20.4375 -12.828125 C 22.414062 -11.367188 24.554688 -10.640625 26.859375 -10.640625 C 29.285156 -10.640625 31.203125 -10.960938 32.609375 -11.609375 C 34.015625 -12.265625 35.617188 -13.546875 37.421875 -15.453125 L 48.234375 -10.046875 C 43.734375 -2.503906 36.242188 1.265625 25.765625 1.265625 C 19.234375 1.265625 13.628906 -0.972656 8.953125 -5.453125 C 4.273438 -9.929688 1.9375 -15.320312 1.9375 -21.625 C 1.9375 -27.9375 4.273438 -33.34375 8.953125 -37.84375 C 13.628906 -42.351562 19.234375 -44.609375 25.765625 -44.609375 C 32.640625 -44.609375 38.226562 -42.625 42.53125 -38.65625 C 46.84375 -34.6875 49 -29.007812 49 -21.625 C 49 -20.613281 48.972656 -19.9375 48.921875 -19.59375 Z M 17.90625 -27.875 L 34.390625 -27.875 C 34.046875 -30.132812 33.15625 -31.867188 31.71875 -33.078125 C 30.28125 -34.285156 28.4375 -34.890625 26.1875 -34.890625 C 23.707031 -34.890625 21.734375 -34.238281 20.265625 -32.9375 C 18.804688 -31.644531 18.019531 -29.957031 17.90625 -27.875 Z M 17.90625 -27.875 "/></g></g></g><g fill="#e4e2dd" fill-opacity="1"><g transform="translate(226.440987, 206.703854)"><g><path d="M 5.0625 0 L 5.0625 -43.34375 L 20.015625 -43.34375 L 20.015625 -38.78125 L 20.1875 -38.78125 C 24.070312 -42.664062 28.210938 -44.609375 32.609375 -44.609375 C 35.765625 -44.609375 38.722656 -43.957031 41.484375 -42.65625 C 44.242188 -41.363281 46.328125 -39.367188 47.734375 -36.671875 C 52.128906 -41.960938 56.914062 -44.609375 62.09375 -44.609375 C 66.71875 -44.609375 70.691406 -43.3125 74.015625 -40.71875 C 77.335938 -38.125 79 -34.070312 79 -28.5625 L 79 0 L 64.046875 0 L 64.046875 -24.5 C 64.046875 -26.8125 63.410156 -28.738281 62.140625 -30.28125 C 60.867188 -31.832031 58.96875 -32.609375 56.4375 -32.609375 C 54.238281 -32.609375 52.5625 -31.945312 51.40625 -30.625 C 50.25 -29.300781 49.617188 -27.710938 49.515625 -25.859375 L 49.515625 0 L 34.546875 0 L 34.546875 -24.5 C 34.546875 -26.8125 33.910156 -28.738281 32.640625 -30.28125 C 31.378906 -31.832031 29.484375 -32.609375 26.953125 -32.609375 C 24.640625 -32.609375 22.90625 -31.890625 21.75 -30.453125 C 20.59375 -29.015625 20.015625 -27.3125 20.015625 -25.34375 L 20.015625 0 Z M 5.0625 0 "/></g></g></g><g fill="#e4e2dd" fill-opacity="1"><g transform="translate(302.462399, 206.703854)"><g><path d="M 23.90625 -44.609375 C 26.382812 -44.609375 28.832031 -44.328125 31.25 -43.765625 C 33.675781 -43.203125 35.484375 -42.640625 36.671875 -42.078125 L 38.4375 -41.234375 L 33.546875 -31.421875 C 30.160156 -33.222656 26.945312 -34.125 23.90625 -34.125 C 22.21875 -34.125 21.019531 -33.941406 20.3125 -33.578125 C 19.613281 -33.210938 19.265625 -32.523438 19.265625 -31.515625 C 19.265625 -31.285156 19.289062 -31.054688 19.34375 -30.828125 C 19.40625 -30.609375 19.519531 -30.398438 19.6875 -30.203125 C 19.851562 -30.003906 20.003906 -29.832031 20.140625 -29.6875 C 20.285156 -29.550781 20.523438 -29.398438 20.859375 -29.234375 C 21.203125 -29.066406 21.472656 -28.9375 21.671875 -28.84375 C 21.867188 -28.757812 22.191406 -28.632812 22.640625 -28.46875 C 23.085938 -28.300781 23.425781 -28.175781 23.65625 -28.09375 C 23.882812 -28.007812 24.265625 -27.878906 24.796875 -27.703125 C 25.328125 -27.535156 25.734375 -27.425781 26.015625 -27.375 C 27.765625 -26.863281 29.285156 -26.296875 30.578125 -25.671875 C 31.878906 -25.054688 33.242188 -24.210938 34.671875 -23.140625 C 36.109375 -22.078125 37.222656 -20.726562 38.015625 -19.09375 C 38.804688 -17.457031 39.203125 -15.597656 39.203125 -13.515625 C 39.203125 -3.660156 32.359375 1.265625 18.671875 1.265625 C 15.578125 1.265625 12.632812 0.785156 9.84375 -0.171875 C 7.050781 -1.128906 5.035156 -2.085938 3.796875 -3.046875 L 1.9375 -4.5625 L 8.03125 -14.78125 C 8.476562 -14.382812 9.066406 -13.921875 9.796875 -13.390625 C 10.535156 -12.859375 11.859375 -12.125 13.765625 -11.1875 C 15.679688 -10.257812 17.34375 -9.796875 18.75 -9.796875 C 21.851562 -9.796875 23.40625 -10.835938 23.40625 -12.921875 C 23.40625 -13.878906 23.007812 -14.625 22.21875 -15.15625 C 21.425781 -15.695312 20.085938 -16.304688 18.203125 -16.984375 C 16.316406 -17.660156 14.835938 -18.28125 13.765625 -18.84375 C 11.066406 -20.25 8.925781 -21.835938 7.34375 -23.609375 C 5.769531 -25.390625 4.984375 -27.742188 4.984375 -30.671875 C 4.984375 -35.054688 6.6875 -38.472656 10.09375 -40.921875 C 13.5 -43.378906 18.101562 -44.609375 23.90625 -44.609375 Z M 23.90625 -44.609375 "/></g></g></g><path stroke-linecap="butt" transform="matrix(0.75, 0, 0, 0.75, 8.339322, 251.411235)" fill="none" stroke-linejoin="miter" d="M 0.000695837 7.998563 L 133.177788 7.998563 " stroke="#e4e2dd" stroke-width="16" stroke-opacity="1" stroke-miterlimit="4"/><path stroke-linecap="butt" transform="matrix(0, 0.75, -0.75, 0, 20.251365, 162.227481)" fill="none" stroke-linejoin="miter" d="M -0.00122406 8.001821 L 130.071701 8.001821 " stroke="#e4e2dd" stroke-width="16" stroke-opacity="1" stroke-miterlimit="4"/><path stroke-linecap="butt" transform="matrix(-0.75, 0, 0, -0.75, 366.656817, 123.588743)" fill="none" stroke-linejoin="miter" d="M 0.000756297 7.998533 L 133.177848 7.998533 " stroke="#e4e2dd" stroke-width="16" stroke-opacity="1" stroke-miterlimit="4"/><path stroke-linecap="butt" transform="matrix(0, -0.75, 0.75, 0, 354.74292, 212.772526)" fill="none" stroke-linejoin="miter" d="M -0.0012153 7.999023 L 130.07171 7.999023 " stroke="#e4e2dd" stroke-width="16" stroke-opacity="1" stroke-miterlimit="4"/></svg>