<svg xmlns="http://www.w3.org/2000/svg" xmlns:xlink="http://www.w3.org/1999/xlink" width="500" zoomAndPan="magnify" viewBox="0 0 375 374.999991" height="500" preserveAspectRatio="xMidYMid meet" version="1.0"><defs><g/></defs><g fill="#000000" fill-opacity="1"><g transform="translate(31.444006, 205.828976)"><g><path d="M 49.703125 -38 C 53.765625 -33.570312 55.796875 -28.144531 55.796875 -21.71875 C 55.796875 -15.300781 53.765625 -9.863281 49.703125 -5.40625 C 45.648438 -0.957031 40.492188 1.265625 34.234375 1.265625 C 28.492188 1.265625 23.757812 -0.535156 20.03125 -4.140625 L 20.03125 21.984375 L 5.078125 21.984375 L 5.078125 -43.375 L 19.875 -43.375 L 19.875 -38.46875 L 20.03125 -38.46875 C 23.757812 -42.582031 28.492188 -44.640625 34.234375 -44.640625 C 40.492188 -44.640625 45.648438 -42.425781 49.703125 -38 Z M 36.984375 -14.375 C 38.929688 -16.289062 39.90625 -18.738281 39.90625 -21.71875 C 39.90625 -24.707031 38.972656 -27.144531 37.109375 -29.03125 C 35.253906 -30.925781 32.804688 -31.875 29.765625 -31.875 C 26.828125 -31.875 24.414062 -30.914062 22.53125 -29 C 20.644531 -27.082031 19.703125 -24.660156 19.703125 -21.734375 C 19.703125 -18.742188 20.671875 -16.289062 22.609375 -14.375 C 24.554688 -12.457031 26.941406 -11.5 29.765625 -11.5 C 32.640625 -11.5 35.046875 -12.457031 36.984375 -14.375 Z M 36.984375 -14.375 "/></g></g></g><g fill="#000000" fill-opacity="1"><g transform="translate(81.989371, 205.828976)"><g><path d="M 6.5 -67.546875 C 8.25 -69.296875 10.335938 -70.171875 12.765625 -70.171875 C 15.191406 -70.171875 17.273438 -69.296875 19.015625 -67.546875 C 20.765625 -65.804688 21.640625 -63.722656 21.640625 -61.296875 C 21.640625 -58.867188 20.765625 -56.78125 19.015625 -55.03125 C 17.273438 -53.289062 15.191406 -52.421875 12.765625 -52.421875 C 10.335938 -52.421875 8.25 -53.289062 6.5 -55.03125 C 4.757812 -56.78125 3.890625 -58.867188 3.890625 -61.296875 C 3.890625 -63.722656 4.757812 -65.804688 6.5 -67.546875 Z M 5.078125 -43.375 L 5.078125 0 L 20.03125 0 L 20.03125 -43.375 Z M 5.078125 -43.375 "/></g></g></g><g fill="#000000" fill-opacity="1"><g transform="translate(100.329756, 205.828976)"><g><path d="M 28.15625 -32.375 C 25.332031 -32.375 22.90625 -31.332031 20.875 -29.25 C 18.851562 -27.164062 17.84375 -24.660156 17.84375 -21.734375 C 17.84375 -18.742188 18.851562 -16.203125 20.875 -14.109375 C 22.90625 -12.023438 25.332031 -10.984375 28.15625 -10.984375 C 29.507812 -10.984375 30.789062 -11.148438 32 -11.484375 C 33.207031 -11.828125 34.097656 -12.171875 34.671875 -12.515625 L 35.421875 -13.015625 L 40.5 -2.625 C 40.101562 -2.34375 39.550781 -1.988281 38.84375 -1.5625 C 38.144531 -1.144531 36.539062 -0.570312 34.03125 0.15625 C 31.519531 0.894531 28.828125 1.265625 25.953125 1.265625 C 19.585938 1.265625 13.992188 -0.972656 9.171875 -5.453125 C 4.347656 -9.929688 1.9375 -15.300781 1.9375 -21.5625 C 1.9375 -27.875 4.347656 -33.296875 9.171875 -37.828125 C 13.992188 -42.367188 19.585938 -44.640625 25.953125 -44.640625 C 28.828125 -44.640625 31.472656 -44.300781 33.890625 -43.625 C 36.316406 -42.945312 38.039062 -42.269531 39.0625 -41.59375 L 40.5 -40.578125 L 35.421875 -30.359375 C 33.566406 -31.703125 31.144531 -32.375 28.15625 -32.375 Z M 28.15625 -32.375 "/></g></g></g><g fill="#000000" fill-opacity="1"><g transform="translate(134.645836, 205.828976)"><g><path d="M 54.625 -43.375 L 33.984375 -22.65625 L 56.640625 0 L 37.375 0 L 20.03125 -17.328125 L 20.03125 0 L 5.078125 0 L 5.078125 -72.703125 L 20.03125 -72.703125 L 20.03125 -28.234375 L 35.171875 -43.375 Z M 54.625 -43.375 "/></g></g></g><g fill="#000000" fill-opacity="1"><g transform="translate(182.063678, 205.828976)"><g><path d="M 48.953125 -19.609375 L 17.5 -19.609375 C 17.5 -16.566406 18.484375 -14.3125 20.453125 -12.84375 C 22.429688 -11.382812 24.578125 -10.65625 26.890625 -10.65625 C 29.304688 -10.65625 31.21875 -10.976562 32.625 -11.625 C 34.039062 -12.269531 35.648438 -13.550781 37.453125 -15.46875 L 48.28125 -10.0625 C 43.769531 -2.507812 36.269531 1.265625 25.78125 1.265625 C 19.25 1.265625 13.640625 -0.972656 8.953125 -5.453125 C 4.273438 -9.929688 1.9375 -15.328125 1.9375 -21.640625 C 1.9375 -27.953125 4.273438 -33.363281 8.953125 -37.875 C 13.640625 -42.382812 19.25 -44.640625 25.78125 -44.640625 C 32.65625 -44.640625 38.25 -42.648438 42.5625 -38.671875 C 46.875 -34.703125 49.03125 -29.023438 49.03125 -21.640625 C 49.03125 -20.628906 49.003906 -19.953125 48.953125 -19.609375 Z M 17.921875 -27.90625 L 34.40625 -27.90625 C 34.070312 -30.15625 33.1875 -31.882812 31.75 -33.09375 C 30.3125 -34.3125 28.460938 -34.921875 26.203125 -34.921875 C 23.722656 -34.921875 21.75 -34.269531 20.28125 -32.96875 C 18.820312 -31.675781 18.035156 -29.988281 17.921875 -27.90625 Z M 17.921875 -27.90625 "/></g></g></g><g fill="#000000" fill-opacity="1"><g transform="translate(225.846836, 205.828976)"><g><path d="M 5.078125 0 L 5.078125 -43.375 L 20.03125 -43.375 L 20.03125 -38.8125 L 20.203125 -38.8125 C 24.097656 -42.695312 28.242188 -44.640625 32.640625 -44.640625 C 35.796875 -44.640625 38.753906 -43.988281 41.515625 -42.6875 C 44.273438 -41.394531 46.359375 -39.394531 47.765625 -36.6875 C 52.160156 -41.988281 56.953125 -44.640625 62.140625 -44.640625 C 66.765625 -44.640625 70.738281 -43.34375 74.0625 -40.75 C 77.382812 -38.15625 79.046875 -34.097656 79.046875 -28.578125 L 79.046875 0 L 64.09375 0 L 64.09375 -24.515625 C 64.09375 -26.828125 63.457031 -28.757812 62.1875 -30.3125 C 60.914062 -31.863281 59.015625 -32.640625 56.484375 -32.640625 C 54.285156 -32.640625 52.609375 -31.972656 51.453125 -30.640625 C 50.296875 -29.316406 49.660156 -27.726562 49.546875 -25.875 L 49.546875 0 L 34.578125 0 L 34.578125 -24.515625 C 34.578125 -26.828125 33.941406 -28.757812 32.671875 -30.3125 C 31.410156 -31.863281 29.507812 -32.640625 26.96875 -32.640625 C 24.65625 -32.640625 22.921875 -31.921875 21.765625 -30.484375 C 20.609375 -29.046875 20.03125 -27.335938 20.03125 -25.359375 L 20.03125 0 Z M 5.078125 0 "/></g></g></g><g fill="#000000" fill-opacity="1"><g transform="translate(301.919503, 205.828976)"><g><path d="M 23.921875 -44.640625 C 26.398438 -44.640625 28.851562 -44.359375 31.28125 -43.796875 C 33.707031 -43.234375 35.507812 -42.671875 36.6875 -42.109375 L 38.46875 -41.265625 L 33.5625 -31.453125 C 30.1875 -33.253906 26.972656 -34.15625 23.921875 -34.15625 C 22.234375 -34.15625 21.035156 -33.972656 20.328125 -33.609375 C 19.628906 -33.242188 19.28125 -32.550781 19.28125 -31.53125 C 19.28125 -31.3125 19.304688 -31.085938 19.359375 -30.859375 C 19.421875 -30.628906 19.535156 -30.414062 19.703125 -30.21875 C 19.867188 -30.019531 20.019531 -29.847656 20.15625 -29.703125 C 20.300781 -29.566406 20.539062 -29.414062 20.875 -29.25 C 21.21875 -29.082031 21.488281 -28.957031 21.6875 -28.875 C 21.882812 -28.789062 22.207031 -28.660156 22.65625 -28.484375 C 23.101562 -28.316406 23.441406 -28.191406 23.671875 -28.109375 C 23.898438 -28.023438 24.28125 -27.898438 24.8125 -27.734375 C 25.351562 -27.566406 25.765625 -27.453125 26.046875 -27.390625 C 27.785156 -26.878906 29.300781 -26.3125 30.59375 -25.6875 C 31.894531 -25.070312 33.265625 -24.226562 34.703125 -23.15625 C 36.140625 -22.09375 37.253906 -20.742188 38.046875 -19.109375 C 38.835938 -17.472656 39.234375 -15.613281 39.234375 -13.53125 C 39.234375 -3.664062 32.382812 1.265625 18.6875 1.265625 C 15.582031 1.265625 12.632812 0.785156 9.84375 -0.171875 C 7.0625 -1.128906 5.046875 -2.085938 3.796875 -3.046875 L 1.9375 -4.5625 L 8.03125 -14.796875 C 8.476562 -14.398438 9.066406 -13.929688 9.796875 -13.390625 C 10.535156 -12.859375 11.863281 -12.128906 13.78125 -11.203125 C 15.695312 -10.273438 17.359375 -9.8125 18.765625 -9.8125 C 21.867188 -9.8125 23.421875 -10.851562 23.421875 -12.9375 C 23.421875 -13.894531 23.023438 -14.640625 22.234375 -15.171875 C 21.441406 -15.710938 20.101562 -16.320312 18.21875 -17 C 16.332031 -17.675781 14.851562 -18.296875 13.78125 -18.859375 C 11.070312 -20.265625 8.925781 -21.851562 7.34375 -23.625 C 5.769531 -25.40625 4.984375 -27.757812 4.984375 -30.6875 C 4.984375 -35.082031 6.6875 -38.503906 10.09375 -40.953125 C 13.507812 -43.410156 18.117188 -44.640625 23.921875 -44.640625 Z M 23.921875 -44.640625 "/></g></g></g><path stroke-linecap="butt" transform="matrix(0.75, 0, 0, 0.75, 16.038627, 248.794877)" fill="none" stroke-linejoin="miter" d="M 0.000580391 7.997456 L 133.266214 7.997456 " stroke="#292929" stroke-width="16" stroke-opacity="1" stroke-miterlimit="4"/><path stroke-linecap="butt" transform="matrix(0, 0.75, -0.75, 0, 22.038032, 163.095985)" fill="none" stroke-linejoin="miter" d="M 0.00222795 7.998626 L 130.158486 7.998626 " stroke="#292929" stroke-width="16" stroke-opacity="1" stroke-miterlimit="4"/><path stroke-linecap="butt" transform="matrix(-0.75, 0, 0, -0.75, 358.960469, 126.205098)" fill="none" stroke-linejoin="miter" d="M -0.000624762 7.997423 L 133.265009 7.997423 " stroke="#292929" stroke-width="16" stroke-opacity="1" stroke-miterlimit="4"/><path stroke-linecap="butt" transform="matrix(0, -0.75, 0.75, 0, 352.960762, 211.90399)" fill="none" stroke-linejoin="miter" d="M 0.00219511 8.000234 L 130.158454 8.000234 " stroke="#292929" stroke-width="16" stroke-opacity="1" stroke-miterlimit="4"/></svg>