<svg xmlns="http://www.w3.org/2000/svg" xmlns:xlink="http://www.w3.org/1999/xlink" width="500" zoomAndPan="magnify" viewBox="0 0 375 374.999991" height="500" preserveAspectRatio="xMidYMid meet" version="1.0"><defs><g/><clipPath id="f6383c4144"><path d="M 265.425781 191.25 L 285.027344 191.25 L 285.027344 210.851562 L 265.425781 210.851562 Z M 265.425781 191.25 " clip-rule="nonzero"/></clipPath><clipPath id="11523c6466"><path d="M 275.226562 191.25 C 269.8125 191.25 265.425781 195.636719 265.425781 201.050781 C 265.425781 206.464844 269.8125 210.851562 275.226562 210.851562 C 280.640625 210.851562 285.027344 206.464844 285.027344 201.050781 C 285.027344 195.636719 280.640625 191.25 275.226562 191.25 Z M 275.226562 191.25 " clip-rule="nonzero"/></clipPath></defs><g fill="#000000" fill-opacity="1"><g transform="translate(92.010606, 208.499986)"><g><path d="M 1.921875 -40.265625 L 11.71875 -40.265625 L 11.71875 -38.109375 C 13.113281 -39.835938 15.035156 -40.703125 17.484375 -40.703125 C 20.609375 -40.703125 22.78125 -39.65625 24 -37.5625 C 25.226562 -35.476562 25.84375 -32.582031 25.84375 -28.875 L 25.84375 -13.96875 C 25.84375 -10.8125 25.660156 -8.234375 25.296875 -6.234375 C 24.929688 -4.242188 24.125 -2.632812 22.875 -1.40625 C 21.632812 -0.175781 19.75 0.4375 17.21875 0.4375 C 14.789062 0.4375 12.957031 -0.238281 11.71875 -1.59375 L 11.71875 8.03125 L 1.921875 8.03125 Z M 14.03125 -7.046875 C 14.90625 -7.046875 15.46875 -7.445312 15.71875 -8.25 C 15.976562 -9.050781 16.109375 -10.222656 16.109375 -11.765625 L 16.109375 -28.875 C 16.109375 -30.269531 15.976562 -31.332031 15.71875 -32.0625 C 15.46875 -32.800781 14.882812 -33.171875 13.96875 -33.171875 C 12.46875 -33.171875 11.71875 -31.773438 11.71875 -28.984375 L 11.71875 -11.328125 C 11.71875 -9.972656 11.875 -8.921875 12.1875 -8.171875 C 12.5 -7.421875 13.113281 -7.046875 14.03125 -7.046875 Z M 14.03125 -7.046875 "/></g></g></g><g fill="#000000" fill-opacity="1"><g transform="translate(116.483618, 208.499986)"><g><path d="M 1.875 -42.953125 L 1.875 -49.671875 L 11.5 -49.671875 L 11.5 -42.953125 Z M 1.875 0 L 1.875 -40.265625 L 11.5 -40.265625 L 11.5 0 Z M 1.875 0 "/></g></g></g><g fill="#000000" fill-opacity="1"><g transform="translate(126.82265, 208.499986)"><g><path d="M 14.03125 0.4375 C 9.625 0.4375 6.445312 -0.675781 4.5 -2.90625 C 2.5625 -5.144531 1.59375 -8.578125 1.59375 -13.203125 L 1.59375 -25.625 C 1.59375 -29.113281 1.96875 -31.945312 2.71875 -34.125 C 3.46875 -36.3125 4.734375 -37.953125 6.515625 -39.046875 C 8.296875 -40.148438 10.765625 -40.703125 13.921875 -40.703125 C 17.359375 -40.703125 20.160156 -39.800781 22.328125 -38 C 24.492188 -36.207031 25.578125 -33.695312 25.578125 -30.46875 L 25.578125 -24.3125 L 15.78125 -24.3125 L 15.78125 -29.96875 C 15.78125 -31.03125 15.632812 -31.847656 15.34375 -32.421875 C 15.050781 -32.992188 14.484375 -33.28125 13.640625 -33.28125 C 12.066406 -33.28125 11.28125 -32.160156 11.28125 -29.921875 L 11.28125 -10.390625 C 11.28125 -9.472656 11.472656 -8.691406 11.859375 -8.046875 C 12.242188 -7.410156 12.816406 -7.09375 13.578125 -7.09375 C 14.347656 -7.09375 14.925781 -7.40625 15.3125 -8.03125 C 15.695312 -8.65625 15.875 -9.460938 15.84375 -10.453125 L 15.78125 -17.21875 L 25.578125 -17.21875 L 25.578125 -10.171875 C 25.578125 -6.867188 24.503906 -4.273438 22.359375 -2.390625 C 20.210938 -0.503906 17.4375 0.4375 14.03125 0.4375 Z M 14.03125 0.4375 "/></g></g></g><g fill="#000000" fill-opacity="1"><g transform="translate(150.800693, 208.499986)"><g><path d="M 1.921875 0 L 1.921875 -47.515625 L 11.4375 -47.515625 L 11.4375 -26.40625 L 16.0625 -40.265625 L 26.015625 -40.265625 L 19.96875 -22.765625 L 27.671875 0 L 17.4375 0 L 11.4375 -18.96875 L 11.4375 0 Z M 1.921875 0 "/></g></g></g><g fill="#000000" fill-opacity="1"><g transform="translate(174.778736, 208.499986)"><g><path d="M 13.203125 0.4375 C 9.054688 0.4375 6.082031 -0.695312 4.28125 -2.96875 C 2.488281 -5.238281 1.59375 -8.628906 1.59375 -13.140625 L 1.59375 -29.3125 C 1.59375 -33.019531 2.65625 -35.84375 4.78125 -37.78125 C 6.90625 -39.726562 9.875 -40.703125 13.6875 -40.703125 C 21.425781 -40.703125 25.296875 -36.90625 25.296875 -29.3125 L 25.296875 -26.40625 C 25.296875 -23.46875 25.257812 -21.082031 25.1875 -19.25 L 11.21875 -19.25 L 11.21875 -11.4375 C 11.21875 -10.039062 11.363281 -8.945312 11.65625 -8.15625 C 11.945312 -7.375 12.570312 -6.984375 13.53125 -6.984375 C 14.257812 -6.984375 14.78125 -7.203125 15.09375 -7.640625 C 15.40625 -8.085938 15.585938 -8.59375 15.640625 -9.15625 C 15.703125 -9.726562 15.734375 -10.5625 15.734375 -11.65625 L 15.734375 -15.5625 L 25.296875 -15.5625 L 25.296875 -13.25 C 25.296875 -8.5625 24.390625 -5.109375 22.578125 -2.890625 C 20.765625 -0.671875 17.640625 0.4375 13.203125 0.4375 Z M 15.734375 -24.03125 L 15.734375 -29.203125 C 15.734375 -32.097656 15.015625 -33.546875 13.578125 -33.546875 C 11.972656 -33.546875 11.171875 -32.097656 11.171875 -29.203125 L 11.171875 -24.03125 Z M 15.734375 -24.03125 "/></g></g></g><g fill="#000000" fill-opacity="1"><g transform="translate(198.591795, 208.499986)"><g><path d="M 1.921875 -40.265625 L 11.328125 -40.265625 L 11.328125 -35.578125 C 11.765625 -37.304688 12.515625 -38.59375 13.578125 -39.4375 C 14.648438 -40.28125 16.15625 -40.703125 18.09375 -40.703125 C 19.664062 -40.703125 21.03125 -40.34375 22.1875 -39.625 C 23.34375 -38.914062 24.160156 -37.9375 24.640625 -36.6875 C 25.441406 -38.082031 26.335938 -39.097656 27.328125 -39.734375 C 28.316406 -40.378906 29.691406 -40.703125 31.453125 -40.703125 C 34.609375 -40.703125 36.800781 -39.738281 38.03125 -37.8125 C 39.257812 -35.882812 39.875 -33.085938 39.875 -29.421875 L 39.765625 0 L 30.078125 0 L 30.078125 -29.59375 C 30.078125 -32.195312 29.421875 -33.5 28.109375 -33.5 C 27.191406 -33.5 26.53125 -33.046875 26.125 -32.140625 C 25.71875 -31.242188 25.515625 -30.175781 25.515625 -28.9375 L 25.515625 0 L 15.890625 0 L 15.890625 -29.59375 C 15.890625 -30.726562 15.769531 -31.644531 15.53125 -32.34375 C 15.300781 -33.039062 14.800781 -33.390625 14.03125 -33.390625 C 13.039062 -33.390625 12.34375 -32.898438 11.9375 -31.921875 C 11.53125 -30.953125 11.328125 -29.789062 11.328125 -28.4375 L 11.328125 0 L 1.921875 0 Z M 1.921875 -40.265625 "/></g></g></g><g fill="#000000" fill-opacity="1"><g transform="translate(237.253768, 208.499986)"><g><path d="M 12.984375 0.4375 C 5.023438 0.4375 1.046875 -3.59375 1.046875 -11.65625 L 1.09375 -14.84375 L 10.71875 -14.84375 L 10.78125 -10.125 C 10.78125 -9.164062 10.960938 -8.4375 11.328125 -7.9375 C 11.691406 -7.445312 12.296875 -7.203125 13.140625 -7.203125 C 14.421875 -7.203125 15.0625 -8.25 15.0625 -10.34375 C 15.0625 -11.882812 14.757812 -13.09375 14.15625 -13.96875 C 13.550781 -14.851562 12.59375 -15.789062 11.28125 -16.78125 L 6.15625 -20.734375 C 4.394531 -22.085938 3.128906 -23.488281 2.359375 -24.9375 C 1.585938 -26.382812 1.203125 -28.429688 1.203125 -31.078125 C 1.203125 -33.128906 1.742188 -34.878906 2.828125 -36.328125 C 3.910156 -37.773438 5.347656 -38.863281 7.140625 -39.59375 C 8.941406 -40.332031 10.941406 -40.703125 13.140625 -40.703125 C 20.953125 -40.703125 24.859375 -36.816406 24.859375 -29.046875 L 24.859375 -28.265625 L 14.90625 -28.265625 L 14.90625 -29.8125 C 14.90625 -30.757812 14.75 -31.570312 14.4375 -32.25 C 14.125 -32.9375 13.601562 -33.28125 12.875 -33.28125 C 12.207031 -33.28125 11.695312 -33.085938 11.34375 -32.703125 C 11 -32.316406 10.828125 -31.789062 10.828125 -31.125 C 10.828125 -29.664062 11.398438 -28.53125 12.546875 -27.71875 L 18.484375 -23.375 C 20.609375 -21.800781 22.238281 -20.085938 23.375 -18.234375 C 24.507812 -16.378906 25.078125 -14.039062 25.078125 -11.21875 C 25.078125 -7.476562 24.015625 -4.597656 21.890625 -2.578125 C 19.765625 -0.566406 16.796875 0.4375 12.984375 0.4375 Z M 12.984375 0.4375 "/></g></g></g><g clip-path="url(#f6383c4144)"><g clip-path="url(#11523c6466)"><path fill="#000000" d="M 265.425781 191.25 L 285.027344 191.25 L 285.027344 210.851562 L 265.425781 210.851562 Z M 265.425781 191.25 " fill-opacity="1" fill-rule="nonzero"/></g></g></svg>