<svg xmlns="http://www.w3.org/2000/svg" xmlns:xlink="http://www.w3.org/1999/xlink" width="500" zoomAndPan="magnify" viewBox="0 0 375 374.999991" height="500" preserveAspectRatio="xMidYMid meet" version="1.0"><defs><g/><clipPath id="8e4467013d"><path d="M 201.4375 187.5 L 221.039062 187.5 L 221.039062 207.101562 L 201.4375 207.101562 Z M 201.4375 187.5 " clip-rule="nonzero"/></clipPath><clipPath id="2a8974801b"><path d="M 211.238281 187.5 C 205.828125 187.5 201.4375 191.886719 201.4375 197.300781 C 201.4375 202.714844 205.828125 207.101562 211.238281 207.101562 C 216.652344 207.101562 221.039062 202.714844 221.039062 197.300781 C 221.039062 191.886719 216.652344 187.5 211.238281 187.5 Z M 211.238281 187.5 " clip-rule="nonzero"/></clipPath></defs><g clip-path="url(#8e4467013d)"><g clip-path="url(#2a8974801b)"><path fill="#000000" d="M 201.4375 187.5 L 221.039062 187.5 L 221.039062 207.101562 L 201.4375 207.101562 Z M 201.4375 187.5 " fill-opacity="1" fill-rule="nonzero"/></g></g><g fill="#000000" fill-opacity="1"><g transform="translate(161.658245, 208.500044)"><g><path d="M 1.921875 -40.265625 L 11.71875 -40.265625 L 11.71875 -38.109375 C 13.113281 -39.835938 15.035156 -40.703125 17.484375 -40.703125 C 20.609375 -40.703125 22.78125 -39.65625 24 -37.5625 C 25.226562 -35.476562 25.84375 -32.582031 25.84375 -28.875 L 25.84375 -13.96875 C 25.84375 -10.8125 25.660156 -8.234375 25.296875 -6.234375 C 24.929688 -4.242188 24.125 -2.632812 22.875 -1.40625 C 21.632812 -0.175781 19.75 0.4375 17.21875 0.4375 C 14.789062 0.4375 12.957031 -0.238281 11.71875 -1.59375 L 11.71875 8.03125 L 1.921875 8.03125 Z M 14.03125 -7.046875 C 14.90625 -7.046875 15.46875 -7.445312 15.71875 -8.25 C 15.976562 -9.050781 16.109375 -10.222656 16.109375 -11.765625 L 16.109375 -28.875 C 16.109375 -30.269531 15.976562 -31.332031 15.71875 -32.0625 C 15.46875 -32.800781 14.882812 -33.171875 13.96875 -33.171875 C 12.46875 -33.171875 11.71875 -31.773438 11.71875 -28.984375 L 11.71875 -11.328125 C 11.71875 -9.972656 11.875 -8.921875 12.1875 -8.171875 C 12.5 -7.421875 13.113281 -7.046875 14.03125 -7.046875 Z M 14.03125 -7.046875 "/></g></g></g><g fill="#000000" fill-opacity="1"><g transform="translate(186.131253, 208.500044)"><g><path d="M 1.921875 0 L 1.921875 -47.515625 L 11.71875 -47.515625 L 11.71875 0 Z M 1.921875 0 "/></g></g></g></svg>